<?xml version="1.0" encoding="utf-8"?>
<!-- Generator: Adobe Illustrator 19.0.0, SVG Export Plug-In . SVG Version: 6.00 Build 0)  -->
<svg version="1.1" id="Layer_1" xmlns="http://www.w3.org/2000/svg" xmlns:xlink="http://www.w3.org/1999/xlink" x="0px" y="0px"
	 viewBox="0 0 50 50" style="enable-background:new 0 0 50 50;" xml:space="preserve">
<style type="text/css">
	.st0{fill:#FFFFFF;}
</style>
<g>
	<path class="st0" d="M40,1.4H27.1c-3.4,0-7.6,0.5-11.2,3.4c-2.7,2.3-4,5.5-4,8.4c0,4.9,3.8,9.8,10.4,9.8c0.6,0,1.3-0.1,2-0.1
		c-0.3,0.7-0.6,1.4-0.6,2.4c0,1.9,1,3.1,1.9,4.3c-2.8,0.2-8.1,0.5-12,2.9c-3.7,2.2-4.8,5.4-4.8,7.6c0,4.6,4.4,8.9,13.5,8.9
		c10.8,0,16.5-6,16.5-11.8c0-4.3-2.5-6.4-5.3-8.8l-2.3-1.8c-0.7-0.6-1.6-1.3-1.6-2.7c0-1.4,0.9-2.3,1.8-3.1c2.6-2.1,5.3-4.3,5.3-8.9
		c0-4.8-3-7.3-4.4-8.5H36L40,1.4z M34.5,39.7c0,3.9-3.2,6.8-9.2,6.8c-6.7,0-11-3.2-11-7.6c0-4.5,4-6,5.4-6.5c2.6-0.9,6-1,6.6-1
		s0.9,0,1.4,0.1C32.4,34.8,34.5,36.5,34.5,39.7L34.5,39.7z M29.5,19.6c-1,1-2.7,1.7-4.3,1.7c-5.4,0-7.8-6.9-7.8-11.1
		c0-1.6,0.3-3.3,1.4-4.6c1-1.3,2.8-2.1,4.4-2.1c5.2,0,7.9,7,7.9,11.5C31.1,16.1,30.9,18.1,29.5,19.6L29.5,19.6z"/>
</g>
</svg>
