<?xml version="1.0" encoding="utf-8"?>
<!-- Generator: Adobe Illustrator 19.0.0, SVG Export Plug-In . SVG Version: 6.00 Build 0)  -->
<svg version="1.1" id="Layer_1" xmlns="http://www.w3.org/2000/svg" xmlns:xlink="http://www.w3.org/1999/xlink" x="0px" y="0px"
	 viewBox="0 0 20 20" style="enable-background:new 0 0 20 20;" xml:space="preserve">
<style type="text/css">
	.st0{fill:#FFFFFF;}
</style>
<g>
	<g>
		<path class="st0" d="M15,10.6c0-2.3,1.9-3.5,2-3.5c-1.1-1.6-2.8-1.8-3.4-1.8c-1.4-0.1-2.8,0.8-3.5,0.8c-0.7,0-1.9-0.8-3-0.8
			c-1.6,0-3,0.9-3.8,2.3c-1.6,2.8-0.4,7,1.2,9.3c0.8,1.1,1.7,2.4,2.9,2.3c1.2,0,1.6-0.8,3-0.8c1.4,0,1.8,0.8,3,0.7
			c1.3,0,2.1-1.1,2.8-2.3c0.9-1.3,1.3-2.6,1.3-2.6C17.5,14.3,15.1,13.4,15,10.6L15,10.6z M12.7,3.7c0.6-0.8,1.1-1.9,1-2.9
			c-0.9,0-2.1,0.6-2.7,1.4C10.4,2.9,9.8,4,10,5C11,5.1,12.1,4.5,12.7,3.7L12.7,3.7z M12.7,3.7"/>
	</g>
</g>
</svg>
