<?xml version="1.0" encoding="utf-8"?>
<!-- Generator: Adobe Illustrator 19.0.0, SVG Export Plug-In . SVG Version: 6.00 Build 0)  -->
<svg version="1.1" id="Layer_1" xmlns="http://www.w3.org/2000/svg" xmlns:xlink="http://www.w3.org/1999/xlink" x="0px" y="0px"
	 viewBox="-454 256 50 50" style="enable-background:new -454 256 50 50;" xml:space="preserve">
<style type="text/css">
	.st0{fill:#2980B9;}
</style>
<g>
	<path class="st0" d="M-438.6,276.4c-0.7,0.2-1.4-0.3-1.5-0.9c-0.2-0.7,0.2-1.4,0.9-1.6c0.7-0.2,1.4,0.3,1.5,1
		C-437.5,275.5-438,276.2-438.6,276.4L-438.6,276.4z M-427.5,268.4c-1.5,0-2.7,1.2-2.7,2.7s1.2,2.7,2.7,2.7s2.7-1.2,2.7-2.7
		S-426.1,268.4-427.5,268.4L-427.5,268.4z M-410.6,283.5l-0.3-0.9l-0.3-0.9l-0.3-0.8l-0.3-0.8l-0.3-0.8l-0.3-0.8l-0.2-0.8l-0.2-0.8
		v-0.4l0.2-0.4l0.2-0.4v-0.4l-0.2-0.7l-0.2-0.7l-0.2-0.7l-0.2-0.7l-0.2-0.7l-0.2-0.7l-0.3-0.7l-0.3-0.7l-0.3-0.6l-0.7-1.3l1-0.6
		l-0.4-0.6l-0.4-0.6l-0.4-0.6l-0.3-0.4l-0.3-0.5l-0.4-0.4l-0.4-0.4l-0.4-0.4l-0.4-0.4l0.9-0.4l-0.5-0.3l-0.5-0.3l-0.5-0.3l-0.5-0.3
		l-0.5-0.3l-0.5-0.2l-0.5-0.2l-0.6-0.2l-0.5-0.2l-0.5-0.2l-0.7-0.2l-0.7-0.2l-0.7-0.2l-0.7-0.2l-0.7-0.1l-0.5-0.1l-0.7-0.1l-0.7-0.1
		h-0.7h-0.7h-0.7h-0.7h-0.7h-0.7l-0.7,0.1l-0.5,0.1l-0.7,0.1l-0.7,0.1l-0.7,0.1l-0.7,0.1l-0.7,0.2l-0.7,0.2l-0.7,0.2l-0.7,0.2
		l-0.7,0.3l-0.6,0.3l-0.7,0.3l-0.6,0.3l-0.6,0.4l-0.6,0.5l-0.6,0.4l-0.6,0.4l-0.5,0.4l-0.4,0.6l-0.5,0.4l-0.4,0.6l-0.4,0.5l-0.4,0.5
		l-0.4,0.6l-0.4,0.6l-0.3,0.6l-0.3,0.6l-0.3,0.6l-0.3,0.6l-0.2,0.7l-0.1,0.6l-0.2,0.7l-0.1,0.6l-0.2,1.4l-0.1,1.3v1.3l0.1,1.3
		l0.2,1.3l0.4,1.3l0.4,1.2l3.3,5.3c5.6,5.7,5.3,11.5,5.3,11.5v1.1v3.5h19l0.1-0.4v-1.1v-1.1l0.1-2.5l0.1-1.3l0.1-0.3l0.1-0.2
		l0.1-0.2l0.2-0.2l0.2-0.1l0.3-0.1l0.3-0.1h0.3h0.4h0.4h0.3h0.4h0.4h0.4h0.3h0.4h0.4h-0.9h0.4h0.4h0.5h0.3l0.3-0.1l0.3-0.1l0.3-0.1
		l0.3-0.2l0.2-0.2l0.2-0.2l0.2-0.2l0.1-0.5l-0.1-0.5l-0.1-0.5v-0.5l0.1-0.2l0.1-0.2l0.1-0.2l0.1-0.2l0.1-0.2l0.1-0.2l0.1-0.2v-0.2
		v-0.2v-0.2h-0.4l-0.1-0.2l-0.2-0.2l-0.2-0.2l-0.2-0.2l-0.2-0.2l0.3-0.1l0.2-0.2l0.2-0.2l0.2-0.2l0.2-0.2l0.1-0.2v-0.2v-0.2
		l-0.2-0.6l-0.2-0.7l-0.1-0.7V285l0.4-0.1l0.3-0.2l0.3-0.2l0.2-0.2l0.2-0.2l0.1-0.2l0.1-0.2V283.5z M-435.3,276.9l-0.5,0.8
		c0,0.1-1.2-0.2-1.2-0.2l-0.4,0.3l-0.2,1.2l-0.9,0.2c-0.1,0-0.7-1-0.7-1l-0.5-0.1c0,0-0.9,0.7-1,0.7l-0.7-0.5
		c-0.1,0,0.2-1.2,0.2-1.2l-0.3-0.4l-1.2-0.2l-0.2-0.9c0-0.1,0.9-0.7,0.9-0.7l0.1-0.5c0,0-0.7-0.9-0.7-1l0.4-0.8l1.2,0.2l0.4-0.3
		l0.2-1.2l0.8-0.2c0.1,0,0.7,1,0.7,1l0.5,0.1c0,0,0.9-0.7,1-0.7l0.7,0.5c0.1,0-0.2,1.2-0.2,1.2l0.3,0.4l1.2,0.2l0.2,0.9
		c0,0.1-0.9,0.7-0.9,0.7l0.1,0.5C-436,275.9-435.3,276.8-435.3,276.9L-435.3,276.9z M-419.1,272L-419.1,272c0,0.1-2.3,1-2.3,1
		l-0.4,1c0,0,1,2.2,0.9,2.3l-1.3,1.3c-0.1,0.1-2.3-0.9-2.3-0.9l-1,0.4c0,0-0.9,2.3-1.1,2.3h-1.9c-0.1,0-1-2.3-1-2.3l-1-0.4
		c0,0-2.3,1-2.4,0.9l-1.3-1.3c-0.1-0.1,1-2.3,1-2.3l-0.4-1c0,0-2.3-0.9-2.3-1v-1.8c0-0.1,2.3-1,2.3-1l0.4-1c0,0-1-2.2-0.9-2.3
		l1.3-1.3c0.1-0.1,2.3,0.9,2.3,0.9l1-0.4c0,0,0.9-2.3,1-2.3h1.9c0.1,0,1,2.3,1,2.3l1,0.4c0,0,2.3-1,2.4-0.9l1.3,1.3
		c0.1,0.1-1,2.3-1,2.3l0.4,1c0,0,2.3,0.9,2.3,1L-419.1,272L-419.1,272z"/>
</g>
</svg>
