<?xml version="1.0" encoding="utf-8"?>
<!-- Generator: Adobe Illustrator 19.0.0, SVG Export Plug-In . SVG Version: 6.00 Build 0)  -->
<svg version="1.1" id="Layer_1" xmlns="http://www.w3.org/2000/svg" xmlns:xlink="http://www.w3.org/1999/xlink" x="0px" y="0px"
	 viewBox="-454 256 50 50" style="enable-background:new -454 256 50 50;" xml:space="preserve">
<style type="text/css">
	.st0{fill:#2980B9;}
</style>
<path class="st0" d="M-451.8,263L-451.8,263C-451.8,263.1-451.8,263.1-451.8,263L-451.8,263l12.1,11.5v30.3h32.3v-45h-32.4v5.3
	l-7.3-7.1l0,0c-0.3,0-1.6-0.5-3.5,1.5C-452.6,261.5-451.9,262.8-451.8,263L-451.8,263z M-418.4,291.1h6.9v9.7h-6.9V291.1z
	 M-418.4,272.9h6.9v17.4h-6.9V272.9z M-418.4,263.8h1.1v8.3h-1.1V263.8z M-414.7,263.8h1.1v8.3h-1.1V263.8z M-411.5,272.1h-1.3v-8.3
	h1.3V272.1z M-415.5,272.1h-1v-8.3h1V272.1z M-419.2,272.1h-1v-8.3h1V272.1z M-422.1,263.8h1.1v8.3h-1.1V263.8z M-435.8,263.8h12.9
	v8.3h-4.2v0.8h7.9v27.9h-5.3v-1.9h-1.6v1.9h-9.7v-14.9h1.3v-1.6h-1.3v-5.9l0.7,0.7c0.2-0.9,0.8-2,1.6-2.9c1-1.1,2.1-1.9,3-2.2
	l-5.4-5.1L-435.8,263.8L-435.8,263.8z"/>
<path class="st0" d="M-433.1,276.4c-1.1,1.3-1.6,2.4-1.6,3c0,0.2,0.4,0.4,0.4,0.4l0,0l0.9,0.1l0.7,0.1l3.1,0.4l0,0
	c0-0.2,0.1-0.5,0.3-0.7c0.1-0.1,0.4-0.4,0.7-0.4l-0.9-3l-0.2-0.7l-0.2-0.8c0-0.2-0.2-0.4-0.3-0.4
	C-430.6,274.3-431.9,275-433.1,276.4L-433.1,276.4z M-430.5,275.2l0.1,0.5l0.2,0.7l0.7,2.4c-0.2,0.1-0.3,0.2-0.3,0.3
	c-0.1,0.1-0.2,0.3-0.3,0.4l-2.4-0.3l-0.7-0.1l-0.5-0.1c0.2-0.5,0.6-1.3,1.3-2.1C-431.7,276-430.9,275.5-430.5,275.2L-430.5,275.2z"
	/>
<path class="st0" d="M-428.9,280.4L-428.9,280.4l0.7,0.6c0,0,0.2,0.1,0.4,0.1c0.1,0,0.2,0,0.3-0.1c0.2-0.2,0-0.6-0.1-0.6l-0.7-0.6
	c0,0,0,0-0.1,0l0,0c-0.1,0-0.2,0.1-0.3,0.2C-428.9,280.1-429,280.3-428.9,280.4L-428.9,280.4z"/>
<path class="st0" d="M-426.1,286.9h1.6v-2.6h-2.7v1.6h1.1V286.9z"/>
<rect x="-432" y="284.3" class="st0" width="2.3" height="1.6"/>
<rect x="-426.1" y="289.3" class="st0" width="1.6" height="2.3"/>
<rect x="-426.1" y="294.1" class="st0" width="1.6" height="2.3"/>
</svg>
