<?xml version="1.0" encoding="utf-8"?>
<!-- Generator: Adobe Illustrator 19.0.0, SVG Export Plug-In . SVG Version: 6.00 Build 0)  -->
<svg version="1.1" id="Layer_1" xmlns="http://www.w3.org/2000/svg" xmlns:xlink="http://www.w3.org/1999/xlink" x="0px" y="0px"
	 viewBox="0 0 150 50" style="enable-background:new 0 0 150 50;" xml:space="preserve">
<style type="text/css">
	.st0{display:none;}
	.st1{font-family:'Roboto-Thin';}
	.st2{font-size:19.4127px;}
	.st3{fill:#FFFFFF;}
</style>
<text id="XMLID_14_" transform="matrix(1 0 0 1 10.511 30.6731)" class="st0 st1 st2">Minimal Design</text>
<g id="XMLID_16_">
	<path id="XMLID_17_" class="st3" d="M13.1,16.9l5.7,13.1l5.7-13.1h0.7v13.8h-0.5v-13l-5.7,13h-0.4l-5.7-13v13h-0.5V16.9H13.1z"/>
	<path id="XMLID_19_" class="st3" d="M28.6,17.2c0-0.1,0-0.3,0.2-0.4c0.1-0.1,0.2-0.2,0.4-0.2c0.1,0,0.3,0.1,0.4,0.2
		c0.1,0.1,0.2,0.2,0.2,0.4s-0.1,0.3-0.2,0.4s-0.2,0.2-0.4,0.2c-0.1,0-0.3-0.1-0.4-0.2C28.7,17.5,28.6,17.4,28.6,17.2z M29.4,30.7
		h-0.5V20.4h0.5V30.7z"/>
	<path id="XMLID_22_" class="st3" d="M33.9,21.8c0.2-0.3,0.5-0.6,0.8-0.8c0.3-0.2,0.7-0.4,1-0.5s0.8-0.2,1.2-0.2
		c0.5,0,1,0.1,1.4,0.2s0.7,0.4,1,0.7c0.3,0.3,0.5,0.7,0.6,1.2c0.1,0.5,0.2,1.1,0.2,1.7v6.6h-0.5V24c0-0.7-0.1-1.2-0.2-1.6
		c-0.1-0.4-0.3-0.8-0.6-1c-0.2-0.2-0.5-0.4-0.9-0.5c-0.3-0.1-0.7-0.2-1.1-0.2c-0.4,0-0.7,0.1-1,0.2c-0.3,0.1-0.6,0.2-0.8,0.4
		c-0.3,0.2-0.5,0.4-0.7,0.6c-0.2,0.2-0.4,0.5-0.5,0.7c-0.1,0.3-0.3,0.5-0.4,0.8c-0.1,0.3-0.2,0.5-0.2,0.7v6.6h-0.5V20.4h0.5v2.4
		C33.5,22.4,33.6,22.1,33.9,21.8z"/>
	<path id="XMLID_24_" class="st3" d="M43.3,17.2c0-0.1,0.1-0.3,0.2-0.4c0.1-0.1,0.2-0.2,0.4-0.2s0.3,0.1,0.4,0.2
		c0.1,0.1,0.2,0.2,0.2,0.4s-0.1,0.3-0.2,0.4c-0.1,0.1-0.2,0.2-0.4,0.2s-0.3-0.1-0.4-0.2C43.3,17.5,43.3,17.4,43.3,17.2z M44,30.7
		h-0.5V20.4H44V30.7z"/>
	<path id="XMLID_27_" class="st3" d="M54.7,30.7h-0.5v-6.8c0-0.6-0.1-1.1-0.2-1.5c-0.1-0.4-0.3-0.7-0.6-1c-0.3-0.2-0.5-0.4-0.9-0.5
		c-0.3-0.1-0.7-0.1-1.1-0.1c-0.6,0-1.1,0.1-1.5,0.4c-0.4,0.2-0.8,0.5-1.1,0.9c-0.3,0.4-0.5,0.7-0.7,1.1s-0.3,0.8-0.4,1.1v6.5h-0.5
		V20.4h0.5v2.4c0.2-0.4,0.3-0.7,0.6-1c0.2-0.3,0.5-0.6,0.8-0.8c0.3-0.2,0.7-0.4,1-0.6c0.4-0.1,0.8-0.2,1.2-0.2
		c0.9,0,1.6,0.2,2.1,0.6c0.5,0.4,0.9,1,1.1,1.9c0.1-0.3,0.3-0.7,0.6-1c0.2-0.3,0.5-0.5,0.8-0.8c0.3-0.2,0.7-0.4,1.1-0.5
		c0.4-0.1,0.8-0.2,1.3-0.2c0.5,0,1,0.1,1.4,0.2c0.4,0.1,0.8,0.4,1,0.7c0.3,0.3,0.5,0.7,0.6,1.2c0.1,0.5,0.2,1.1,0.2,1.7v6.6h-0.5V24
		c0-0.7-0.1-1.2-0.2-1.6s-0.3-0.8-0.6-1c-0.2-0.2-0.5-0.4-0.9-0.5c-0.3-0.1-0.7-0.1-1.1-0.1c-0.4,0-0.8,0.1-1.1,0.2
		c-0.3,0.1-0.6,0.2-0.9,0.4c-0.3,0.2-0.5,0.4-0.7,0.6s-0.4,0.4-0.5,0.7c-0.1,0.2-0.2,0.5-0.3,0.7c-0.1,0.2-0.1,0.4-0.1,0.6V30.7z"/>
	<path id="XMLID_29_" class="st3" d="M71.4,30.7c-0.1-0.2-0.1-0.5-0.1-0.9s0-0.7,0-1c-0.2,0.3-0.4,0.5-0.6,0.8
		c-0.3,0.2-0.5,0.5-0.9,0.7s-0.7,0.3-1.1,0.5s-0.9,0.2-1.4,0.2c-0.5,0-0.9-0.1-1.3-0.2c-0.4-0.1-0.7-0.3-1-0.6
		c-0.3-0.2-0.5-0.5-0.6-0.9c-0.1-0.3-0.2-0.7-0.2-1.1c0-0.5,0.1-0.9,0.3-1.3c0.2-0.4,0.5-0.7,0.9-1c0.4-0.3,0.9-0.5,1.5-0.6
		c0.6-0.2,1.3-0.2,2-0.2h2.5v-1.5c0-0.9-0.3-1.5-0.8-2c-0.5-0.5-1.3-0.7-2.3-0.7c-0.5,0-0.9,0.1-1.3,0.2c-0.4,0.1-0.7,0.3-1,0.5
		c-0.3,0.2-0.5,0.5-0.7,0.8s-0.3,0.6-0.3,1l-0.5,0c0-0.4,0.1-0.8,0.3-1.1s0.4-0.7,0.8-1c0.3-0.3,0.7-0.5,1.2-0.7
		c0.5-0.2,1-0.2,1.5-0.2c0.5,0,1,0.1,1.5,0.2c0.4,0.1,0.8,0.3,1.2,0.6s0.6,0.6,0.8,1c0.2,0.4,0.3,0.9,0.3,1.4v5.1c0,0.2,0,0.4,0,0.6
		c0,0.2,0,0.4,0.1,0.5c0,0.2,0,0.3,0.1,0.5c0,0.2,0.1,0.3,0.1,0.4v0.1H71.4z M67.2,30.4c0.5,0,1-0.1,1.4-0.2s0.8-0.3,1.1-0.5
		s0.6-0.5,0.9-0.8c0.3-0.3,0.5-0.6,0.6-1v-2.4h-2.4c-0.7,0-1.3,0.1-1.8,0.2c-0.5,0.1-1,0.3-1.3,0.5c-0.4,0.2-0.6,0.5-0.8,0.8
		c-0.2,0.3-0.3,0.7-0.3,1.1c0,0.3,0.1,0.6,0.2,0.9c0.1,0.3,0.3,0.5,0.5,0.7c0.2,0.2,0.5,0.4,0.8,0.5S66.8,30.4,67.2,30.4z"/>
	<path id="XMLID_32_" class="st3" d="M75.7,30.7h-0.5V16.1h0.5V30.7z"/>
	<path id="XMLID_34_" class="st3" d="M84,30.7V16.9h3.8c0.8,0,1.6,0.1,2.3,0.4c0.7,0.3,1.3,0.7,1.8,1.2s0.9,1.2,1.2,1.9
		c0.3,0.7,0.4,1.6,0.4,2.5v1.7c0,0.9-0.1,1.7-0.4,2.5c-0.3,0.7-0.7,1.4-1.2,1.9s-1.1,0.9-1.8,1.2c-0.7,0.3-1.5,0.4-2.3,0.4H84z
		 M84.5,17.4v12.8h3.3c0.7,0,1.4-0.1,2.1-0.4c0.6-0.3,1.2-0.7,1.6-1.1c0.5-0.5,0.8-1.1,1.1-1.8c0.3-0.7,0.4-1.4,0.4-2.2v-1.7
		c0-0.8-0.1-1.5-0.4-2.2c-0.3-0.7-0.6-1.3-1.1-1.7c-0.5-0.5-1-0.9-1.6-1.1s-1.3-0.4-2.1-0.4H84.5z"/>
	<path id="XMLID_37_" class="st3" d="M100.1,30.9c-0.6,0-1.2-0.1-1.8-0.4c-0.5-0.3-1-0.6-1.4-1.1c-0.4-0.5-0.7-1-1-1.6
		c-0.2-0.6-0.4-1.3-0.4-2.1v-0.4c0-0.7,0.1-1.4,0.3-2.1s0.5-1.2,0.9-1.6c0.4-0.5,0.8-0.8,1.4-1.1s1.1-0.4,1.7-0.4
		c0.6,0,1.1,0.1,1.6,0.3c0.5,0.2,0.9,0.5,1.2,0.9c0.3,0.4,0.6,0.8,0.8,1.4c0.2,0.5,0.3,1.1,0.3,1.8v0.6h-7.7v0.1v0.4
		c0,0.6,0.1,1.2,0.3,1.8c0.2,0.6,0.5,1,0.8,1.5c0.4,0.4,0.8,0.7,1.3,1s1,0.4,1.6,0.4c0.3,0,0.6,0,0.8-0.1c0.3,0,0.5-0.1,0.8-0.2
		c0.3-0.1,0.5-0.3,0.7-0.4c0.2-0.2,0.5-0.4,0.7-0.7l0.4,0.3c-0.2,0.2-0.4,0.5-0.6,0.7c-0.2,0.2-0.5,0.4-0.8,0.5
		c-0.3,0.1-0.6,0.3-0.9,0.3C100.9,30.8,100.5,30.9,100.1,30.9z M99.9,20.7c-0.5,0-1,0.1-1.4,0.3s-0.8,0.5-1.1,0.8
		c-0.3,0.4-0.6,0.8-0.8,1.3c-0.2,0.5-0.3,1-0.4,1.6h7.1v-0.1c0-0.5-0.1-1-0.2-1.5c-0.2-0.5-0.4-0.9-0.7-1.2
		c-0.3-0.4-0.6-0.6-1.1-0.8C100.9,20.8,100.4,20.7,99.9,20.7z"/>
	<path id="XMLID_40_" class="st3" d="M112.5,28.2c0-0.2,0-0.5-0.1-0.7c-0.1-0.2-0.3-0.5-0.5-0.7c-0.2-0.2-0.6-0.4-1-0.6
		s-0.9-0.4-1.6-0.5c-0.6-0.1-1.1-0.3-1.5-0.4c-0.4-0.2-0.8-0.3-1.1-0.6s-0.5-0.5-0.7-0.8c-0.1-0.3-0.2-0.7-0.2-1.1
		c0-0.4,0.1-0.7,0.2-1c0.2-0.3,0.4-0.6,0.7-0.8c0.3-0.2,0.7-0.4,1.1-0.6c0.4-0.1,0.9-0.2,1.4-0.2c0.6,0,1.1,0.1,1.5,0.2
		s0.8,0.3,1.2,0.6c0.3,0.3,0.6,0.6,0.7,0.9c0.2,0.4,0.3,0.8,0.3,1.2h-0.5c0-0.3-0.1-0.6-0.2-0.9c-0.1-0.3-0.3-0.5-0.6-0.8
		c-0.3-0.2-0.6-0.4-1-0.5s-0.8-0.2-1.3-0.2c-0.5,0-1,0.1-1.3,0.2s-0.7,0.3-0.9,0.5s-0.4,0.4-0.5,0.7c-0.1,0.2-0.2,0.5-0.2,0.7
		c0,0.3,0,0.5,0.1,0.7c0.1,0.2,0.2,0.4,0.4,0.6s0.5,0.4,0.9,0.5c0.4,0.2,0.9,0.3,1.6,0.5c0.6,0.1,1.1,0.3,1.6,0.5
		c0.4,0.2,0.8,0.4,1.1,0.6s0.5,0.5,0.6,0.8s0.2,0.7,0.2,1.1c0,0.4-0.1,0.8-0.3,1.1c-0.2,0.3-0.4,0.6-0.7,0.8
		c-0.3,0.2-0.7,0.4-1.1,0.6s-0.9,0.2-1.5,0.2c-0.6,0-1.2-0.1-1.6-0.2c-0.5-0.1-0.9-0.4-1.2-0.6c-0.3-0.3-0.6-0.6-0.7-0.9
		c-0.2-0.3-0.3-0.7-0.3-1.1h0.5c0,0.4,0.2,0.8,0.4,1.1c0.2,0.3,0.5,0.5,0.8,0.7c0.3,0.2,0.7,0.3,1,0.4c0.4,0.1,0.8,0.1,1.1,0.1
		c0.5,0,1-0.1,1.3-0.2c0.4-0.1,0.7-0.3,1-0.5c0.3-0.2,0.5-0.4,0.6-0.7C112.4,28.7,112.5,28.4,112.5,28.2z"/>
	<path id="XMLID_42_" class="st3" d="M115.7,17.2c0-0.1,0.1-0.3,0.2-0.4c0.1-0.1,0.2-0.2,0.4-0.2s0.3,0.1,0.4,0.2
		c0.1,0.1,0.2,0.2,0.2,0.4s-0.1,0.3-0.2,0.4s-0.2,0.2-0.4,0.2s-0.3-0.1-0.4-0.2C115.8,17.5,115.7,17.4,115.7,17.2z M116.5,30.7H116
		V20.4h0.5V30.7z"/>
	<path id="XMLID_45_" class="st3" d="M119.4,25.4c0-0.8,0.1-1.5,0.3-2.2s0.4-1.2,0.8-1.6c0.3-0.4,0.7-0.8,1.2-1s1-0.4,1.6-0.4
		c0.4,0,0.8,0.1,1.2,0.2c0.4,0.1,0.7,0.2,1,0.4c0.3,0.2,0.5,0.4,0.8,0.6s0.4,0.5,0.6,0.8v-1.9h0.5v10.1c0,0.7-0.1,1.3-0.3,1.8
		c-0.2,0.5-0.4,1-0.8,1.3c-0.3,0.4-0.7,0.7-1.2,0.9c-0.5,0.2-1,0.3-1.6,0.3c-0.4,0-0.7,0-1.1-0.1c-0.3-0.1-0.6-0.2-0.9-0.4
		s-0.5-0.3-0.8-0.5c-0.2-0.2-0.4-0.4-0.6-0.7l0.4-0.3c0.4,0.5,0.8,0.9,1.3,1.2c0.5,0.3,1,0.4,1.7,0.4c0.6,0,1-0.1,1.5-0.3
		c0.4-0.2,0.8-0.4,1.1-0.8c0.3-0.3,0.5-0.7,0.6-1.2c0.1-0.5,0.2-1,0.2-1.6v-1.5c-0.2,0.3-0.3,0.5-0.6,0.7c-0.2,0.2-0.5,0.4-0.8,0.6
		c-0.3,0.2-0.6,0.3-1,0.4c-0.4,0.1-0.7,0.1-1.2,0.1c-0.6,0-1.1-0.1-1.6-0.4c-0.5-0.3-0.9-0.6-1.2-1.1s-0.6-1-0.8-1.6
		s-0.3-1.4-0.3-2.1V25.4z M119.9,25.6c0,0.7,0.1,1.3,0.2,1.9c0.1,0.6,0.3,1.1,0.6,1.5c0.3,0.4,0.6,0.7,1,1s0.9,0.4,1.5,0.4
		c0.5,0,0.9-0.1,1.3-0.2c0.4-0.1,0.7-0.3,1-0.5c0.3-0.2,0.5-0.4,0.7-0.7s0.4-0.6,0.5-0.9v-4.7c-0.1-0.3-0.2-0.6-0.4-0.9
		c-0.2-0.3-0.4-0.6-0.7-0.9c-0.3-0.3-0.6-0.5-1-0.6c-0.4-0.2-0.9-0.2-1.4-0.2c-0.6,0-1.1,0.1-1.5,0.4c-0.4,0.2-0.8,0.6-1,1
		c-0.3,0.4-0.5,0.9-0.6,1.5c-0.1,0.6-0.2,1.2-0.2,1.9V25.6z"/>
	<path id="XMLID_48_" class="st3" d="M131.6,21.8c0.2-0.3,0.5-0.6,0.8-0.8c0.3-0.2,0.7-0.4,1-0.5s0.8-0.2,1.2-0.2
		c0.5,0,1,0.1,1.4,0.2s0.7,0.4,1,0.7c0.3,0.3,0.5,0.7,0.6,1.2c0.1,0.5,0.2,1.1,0.2,1.7v6.6h-0.5V24c0-0.7-0.1-1.2-0.2-1.6
		c-0.1-0.4-0.3-0.8-0.6-1c-0.2-0.2-0.5-0.4-0.9-0.5c-0.3-0.1-0.7-0.2-1.1-0.2c-0.4,0-0.7,0.1-1,0.2c-0.3,0.1-0.6,0.2-0.8,0.4
		c-0.2,0.2-0.5,0.4-0.7,0.6c-0.2,0.2-0.4,0.5-0.5,0.7c-0.1,0.3-0.3,0.5-0.4,0.8c-0.1,0.3-0.2,0.5-0.2,0.7v6.6h-0.5V20.4h0.5v2.4
		C131.2,22.4,131.4,22.1,131.6,21.8z"/>
</g>
</svg>
